<svg id="visual" viewBox="0 0 960 540" width="960" height="540" xmlns="http://www.w3.org/2000/svg" xmlns:xlink="http://www.w3.org/1999/xlink" version="1.1"><rect x="0" y="0" width="960" height="540" fill="#FFF"></rect><path d="M0 413L13.3 419.8C26.7 426.7 53.3 440.3 80 440.3C106.7 440.3 133.3 426.7 160 427.3C186.7 428 213.3 443 240 453.8C266.7 464.7 293.3 471.3 320 465.8C346.7 460.3 373.3 442.7 400 443.3C426.7 444 453.3 463 480 461C506.7 459 533.3 436 560 426.3C586.7 416.7 613.3 420.3 640 427.2C666.7 434 693.3 444 720 452.5C746.7 461 773.3 468 800 464C826.7 460 853.3 445 880 435.3C906.7 425.7 933.3 421.3 946.7 419.2L960 417L960 541L946.7 541C933.3 541 906.7 541 880 541C853.3 541 826.7 541 800 541C773.3 541 746.7 541 720 541C693.3 541 666.7 541 640 541C613.3 541 586.7 541 560 541C533.3 541 506.7 541 480 541C453.3 541 426.7 541 400 541C373.3 541 346.7 541 320 541C293.3 541 266.7 541 240 541C213.3 541 186.7 541 160 541C133.3 541 106.7 541 80 541C53.3 541 26.7 541 13.3 541L0 541Z" fill="#463679"></path><path d="M0 483L13.3 476.8C26.7 470.7 53.3 458.3 80 457C106.7 455.7 133.3 465.3 160 461.5C186.7 457.7 213.3 440.3 240 439.8C266.7 439.3 293.3 455.7 320 466.5C346.7 477.3 373.3 482.7 400 478.2C426.7 473.7 453.3 459.3 480 457.7C506.7 456 533.3 467 560 463.5C586.7 460 613.3 442 640 432.5C666.7 423 693.3 422 720 430.8C746.7 439.7 773.3 458.3 800 458.5C826.7 458.7 853.3 440.3 880 432C906.7 423.7 933.3 425.3 946.7 426.2L960 427L960 541L946.7 541C933.3 541 906.7 541 880 541C853.3 541 826.7 541 800 541C773.3 541 746.7 541 720 541C693.3 541 666.7 541 640 541C613.3 541 586.7 541 560 541C533.3 541 506.7 541 480 541C453.3 541 426.7 541 400 541C373.3 541 346.7 541 320 541C293.3 541 266.7 541 240 541C213.3 541 186.7 541 160 541C133.3 541 106.7 541 80 541C53.3 541 26.7 541 13.3 541L0 541Z" fill="#3c2f69"></path><path d="M0 438L13.3 440.7C26.7 443.3 53.3 448.7 80 458.3C106.7 468 133.3 482 160 481.2C186.7 480.3 213.3 464.7 240 463.2C266.7 461.7 293.3 474.3 320 482.3C346.7 490.3 373.3 493.7 400 495.5C426.7 497.3 453.3 497.7 480 491C506.7 484.3 533.3 470.7 560 461.8C586.7 453 613.3 449 640 451.5C666.7 454 693.3 463 720 464.7C746.7 466.3 773.3 460.7 800 459.3C826.7 458 853.3 461 880 463.8C906.7 466.7 933.3 469.3 946.7 470.7L960 472L960 541L946.7 541C933.3 541 906.7 541 880 541C853.3 541 826.7 541 800 541C773.3 541 746.7 541 720 541C693.3 541 666.7 541 640 541C613.3 541 586.7 541 560 541C533.3 541 506.7 541 480 541C453.3 541 426.7 541 400 541C373.3 541 346.7 541 320 541C293.3 541 266.7 541 240 541C213.3 541 186.7 541 160 541C133.3 541 106.7 541 80 541C53.3 541 26.7 541 13.3 541L0 541Z" fill="#32295a"></path><path d="M0 490L13.3 492.5C26.7 495 53.3 500 80 496.7C106.7 493.3 133.3 481.7 160 480.2C186.7 478.7 213.3 487.3 240 490.8C266.7 494.3 293.3 492.7 320 491.2C346.7 489.7 373.3 488.3 400 483.5C426.7 478.7 453.3 470.3 480 469.8C506.7 469.3 533.3 476.7 560 476.5C586.7 476.3 613.3 468.7 640 465.2C666.7 461.7 693.3 462.3 720 461.7C746.7 461 773.3 459 800 462.3C826.7 465.7 853.3 474.3 880 474C906.7 473.7 933.3 464.3 946.7 459.7L960 455L960 541L946.7 541C933.3 541 906.7 541 880 541C853.3 541 826.7 541 800 541C773.3 541 746.7 541 720 541C693.3 541 666.7 541 640 541C613.3 541 586.7 541 560 541C533.3 541 506.7 541 480 541C453.3 541 426.7 541 400 541C373.3 541 346.7 541 320 541C293.3 541 266.7 541 240 541C213.3 541 186.7 541 160 541C133.3 541 106.7 541 80 541C53.3 541 26.7 541 13.3 541L0 541Z" fill="#29224b"></path><path d="M0 470L13.3 470.5C26.7 471 53.3 472 80 471.8C106.7 471.7 133.3 470.3 160 472.3C186.7 474.3 213.3 479.7 240 483.3C266.7 487 293.3 489 320 490.7C346.7 492.3 373.3 493.7 400 495.2C426.7 496.7 453.3 498.3 480 497.3C506.7 496.3 533.3 492.7 560 493.3C586.7 494 613.3 499 640 497.5C666.7 496 693.3 488 720 487.3C746.7 486.7 773.3 493.3 800 499.3C826.7 505.3 853.3 510.7 880 512.7C906.7 514.7 933.3 513.3 946.7 512.7L960 512L960 541L946.7 541C933.3 541 906.7 541 880 541C853.3 541 826.7 541 800 541C773.3 541 746.7 541 720 541C693.3 541 666.7 541 640 541C613.3 541 586.7 541 560 541C533.3 541 506.7 541 480 541C453.3 541 426.7 541 400 541C373.3 541 346.7 541 320 541C293.3 541 266.7 541 240 541C213.3 541 186.7 541 160 541C133.3 541 106.7 541 80 541C53.3 541 26.7 541 13.3 541L0 541Z" fill="#211c3c"></path><path d="M0 518L13.3 518.8C26.7 519.7 53.3 521.3 80 520.5C106.7 519.7 133.3 516.3 160 511.2C186.7 506 213.3 499 240 496.5C266.7 494 293.3 496 320 498.2C346.7 500.3 373.3 502.7 400 504.2C426.7 505.7 453.3 506.3 480 508.8C506.7 511.3 533.3 515.7 560 516.3C586.7 517 613.3 514 640 508.8C666.7 503.7 693.3 496.3 720 492.5C746.7 488.7 773.3 488.3 800 488.8C826.7 489.3 853.3 490.7 880 491.7C906.7 492.7 933.3 493.3 946.7 493.7L960 494L960 541L946.7 541C933.3 541 906.7 541 880 541C853.3 541 826.7 541 800 541C773.3 541 746.7 541 720 541C693.3 541 666.7 541 640 541C613.3 541 586.7 541 560 541C533.3 541 506.7 541 480 541C453.3 541 426.7 541 400 541C373.3 541 346.7 541 320 541C293.3 541 266.7 541 240 541C213.3 541 186.7 541 160 541C133.3 541 106.7 541 80 541C53.3 541 26.7 541 13.3 541L0 541Z" fill="#19152e"></path><path d="M0 508L13.3 511.8C26.7 515.7 53.3 523.3 80 523C106.7 522.7 133.3 514.3 160 510.5C186.7 506.7 213.3 507.3 240 511.5C266.7 515.7 293.3 523.3 320 526.2C346.7 529 373.3 527 400 522.7C426.7 518.3 453.3 511.7 480 508.3C506.7 505 533.3 505 560 507.5C586.7 510 613.3 515 640 517.8C666.7 520.7 693.3 521.3 720 521.2C746.7 521 773.3 520 800 520.7C826.7 521.3 853.3 523.7 880 523.7C906.7 523.7 933.3 521.3 946.7 520.2L960 519L960 541L946.7 541C933.3 541 906.7 541 880 541C853.3 541 826.7 541 800 541C773.3 541 746.7 541 720 541C693.3 541 666.7 541 640 541C613.3 541 586.7 541 560 541C533.3 541 506.7 541 480 541C453.3 541 426.7 541 400 541C373.3 541 346.7 541 320 541C293.3 541 266.7 541 240 541C213.3 541 186.7 541 160 541C133.3 541 106.7 541 80 541C53.3 541 26.7 541 13.3 541L0 541Z" fill="#120d21"></path></svg>